<svg xmlns="http://www.w3.org/2000/svg" xmlns:xlink="http://www.w3.org/1999/xlink" viewBox="0 0 35.31 40.4"><defs><style>.cls-1{fill:none;stroke:#231f20;stroke-miterlimit:10;stroke-width:0.33px;}.cls-2{fill:#231f20;}.cls-3{fill:url(#linear-gradient);}.cls-4{fill:#9e3421;}</style><linearGradient id="linear-gradient" x1="0.93" y1="8.49" x2="34.23" y2="8.49" gradientUnits="userSpaceOnUse"><stop offset="0" stop-color="#fff"/><stop offset="1" stop-color="#9b8579"/></linearGradient></defs><g id="Layer_2" data-name="Layer 2"><g id="Layer_1-2" data-name="Layer 1"><path class="cls-1" d="M34.68,9.11l-5,31.12H5.44Q3,24.71.48,9.18a1.12,1.12,0,0,1,1.08-1.4,135.72,135.72,0,0,0,16.93,1,134.81,134.81,0,0,0,15.16-1A1.08,1.08,0,0,1,34.68,9.11Z"/><path class="cls-2" d="M17.58,11.41c-.72,0-17.58,0-17.58-2.92S16.86,5.57,17.58,5.57s17.58,0,17.58,2.92S18.3,11.41,17.58,11.41ZM.93,8.49c.41.71,6.22,1.94,16.65,1.94S33.81,9.2,34.23,8.49C33.81,7.78,28,6.55,17.58,6.55S1.34,7.78.93,8.49Z"/><path class="cls-2" d="M17.88,5.52C11.85,5.52.45,5,.45,2.76S11.85,0,17.88,0,35.31.58,35.31,2.76,23.91,5.52,17.88,5.52Zm0-5.2C8.43.32.75,1.41.75,2.76S8.43,5.21,17.88,5.21,35,4.11,35,2.76,27.32.32,17.88.32Zm0,4.86C8.45,5.18.77,4.09.77,2.76S8.45.34,17.88.34,35,1.43,35,2.76,27.31,5.18,17.88,5.18Zm0-4.52C6.84.66,1.07,2,1.07,2.76s5.77,2.1,16.81,2.1,16.8-1.37,16.8-2.1S28.91.66,17.88.66Z"/><ellipse class="cls-3" cx="17.58" cy="8.49" rx="16.65" ry="2.43"/><path class="cls-4" d="M10.61,21a8.75,8.75,0,0,0,2.14,2.32c1,.87,2,1.72,3,2.6s2.24,1.79,3.32,2.74A13.22,13.22,0,0,0,20.68,30c.63.4,1.31.71,1.91,1.17s1.59-.41.92-.93c-1.11-.86-2.37-1.44-3.44-2.37s-2.17-1.74-3.22-2.66-1.94-1.69-2.92-2.52a9,9,0,0,1-2.19-2.28c-.4-.74-1.53-.08-1.13.66Z"/><path class="cls-4" d="M10.75,31a19.16,19.16,0,0,1,3.38-1.87,14.42,14.42,0,0,0,3.21-2.26,38,38,0,0,1,7-5.24l-1.14-.65c0,.1,0,.19,0,.28,0,1,1.56,1,1.51,0,0-.09,0-.18,0-.28a.76.76,0,0,0-1.13-.65,37.74,37.74,0,0,0-7.18,5.3,14.66,14.66,0,0,1-3.27,2.31,18.75,18.75,0,0,0-3.49,2c-.74.65.34,1.71,1.07,1.07Z"/></g></g></svg>